<svg xmlns="http://www.w3.org/2000/svg" version="1.1" xmlns:xlink="http://www.w3.org/1999/xlink" xmlns:svgjs="http://svgjs.com/svgjs" width="1440" height="560" preserveAspectRatio="none" viewBox="0 0 1440 560"><g mask="url(&quot;#SvgjsMask1120&quot;)" fill="none"><rect width="1440" height="560" x="0" y="0" fill="rgba(247, 247, 247, 1)"></rect><path d="M1536 560L0 560 L0 288.53Q48.05 216.58, 120 264.64Q176.12 248.75, 192 304.87Q194.91 235.78, 264 238.69Q286.58 189.27, 336 211.85Q397.6 201.45, 408 263.05Q453.46 188.51, 528 233.97Q570.59 204.56, 600 247.14Q671.67 246.81, 672 318.48Q698.89 273.38, 744 300.27Q762.68 246.94, 816 265.62Q886.93 216.56, 936 287.49Q992.19 271.68, 1008 327.87Q1013.77 261.64, 1080 267.42Q1089.17 204.59, 1152 213.76Q1217.65 159.41, 1272 225.06Q1329.35 210.41, 1344 267.75Q1405.62 257.37, 1416 318.99Q1458.49 241.48, 1536 283.97z" fill="rgba(239, 239, 239, 1)"></path><path d="M1464 560L0 560 L0 296.28Q53.47 277.75, 72 331.22Q127.33 314.56, 144 369.89Q198.02 303.91, 264 357.94Q308.37 282.31, 384 326.68Q407.63 278.31, 456 301.95Q546.54 272.49, 576 363.03Q619.21 286.24, 696 329.44Q789.43 302.87, 816 396.3Q834.03 342.33, 888 360.36Q916.23 316.59, 960 344.81Q1016.89 329.7, 1032 386.59Q1101.71 336.3, 1152 406.02Q1171.76 305.77, 1272 325.53Q1300.35 281.88, 1344 310.23Q1435.35 281.58, 1464 372.93z" fill="rgba(232, 232, 232, 1)"></path><path d="M1560 560L0 560 L0 414.17Q106.34 400.51, 120 506.86Q146.79 413.65, 240 440.45Q250.13 378.57, 312 388.7Q384.14 340.84, 432 412.98Q524.43 385.42, 552 477.85Q620.05 425.9, 672 493.96Q700.02 401.99, 792 430.01Q819.5 385.51, 864 413.01Q925.35 402.36, 936 463.7Q964.07 419.77, 1008 447.84Q1046.56 366.39, 1128 404.95Q1221 377.95, 1248 470.95Q1269.77 372.72, 1368 394.48Q1411.5 365.98, 1440 409.48Q1525.74 375.22, 1560 460.95z" fill="rgba(225, 225, 225, 1)"></path><path d="M1560 560L0 560 L0 544.57Q34.25 506.82, 72 541.07Q84.51 481.58, 144 494.09Q169.73 447.82, 216 473.55Q314.79 452.34, 336 551.12Q352.51 495.63, 408 512.14Q425.55 457.69, 480 475.23Q551.8 427.03, 600 498.83Q630.82 457.65, 672 488.48Q783.13 479.61, 792 590.73Q815.05 541.78, 864 564.82Q889.07 469.89, 984 494.97Q1028.33 467.3, 1056 511.63Q1124.42 508.05, 1128 576.47Q1142.55 471.01, 1248 485.56Q1291.84 457.4, 1320 501.24Q1407.77 469.01, 1440 556.78Q1490.03 486.81, 1560 536.84z" fill="rgba(255, 255, 255, 1)"></path></g><defs><mask id="SvgjsMask1120"><rect width="1440" height="560" fill="#ffffff"></rect></mask></defs></svg>