<svg xmlns="http://www.w3.org/2000/svg" version="1.1" xmlns:xlink="http://www.w3.org/1999/xlink" xmlns:svgjs="http://svgjs.com/svgjs" width="1440" height="560" preserveAspectRatio="none" viewBox="0 0 1440 560"><g mask="url(&quot;#SvgjsMask1013&quot;)" fill="none"><rect width="1440" height="560" x="0" y="0" fill="rgba(49, 49, 49, 1)"></rect><path d="M1488 560L0 560 L0 231.11Q78.93 238.04, 72 316.97Q135.72 260.69, 192 324.41Q240.54 252.95, 312 301.49Q320.38 237.87, 384 246.24Q432.72 174.97, 504 223.69Q564.19 211.88, 576 272.08Q624.43 248.51, 648 296.94Q681.8 210.74, 768 244.54Q815.56 172.1, 888 219.65Q989.71 201.36, 1008 303.06Q1034.35 257.41, 1080 283.76Q1089.36 221.12, 1152 230.48Q1181.92 188.41, 1224 218.33Q1284.46 206.8, 1296 267.26Q1337.6 236.86, 1368 278.45Q1433.65 224.1, 1488 289.75z" fill="rgba(79, 79, 79, 1)"></path><path d="M1536 560L0 560 L0 359.84Q57.29 345.13, 72 402.41Q113.29 371.7, 144 412.98Q147.33 344.31, 216 347.65Q245.38 305.03, 288 334.42Q312.08 286.5, 360 310.58Q454.73 285.31, 480 380.04Q493.54 321.58, 552 335.11Q574.95 286.06, 624 309.02Q708.46 273.48, 744 357.94Q792.98 286.92, 864 335.9Q959.59 311.49, 984 407.08Q1038.24 341.31, 1104 395.55Q1115.89 287.44, 1224 299.33Q1290.79 246.12, 1344 312.91Q1388.12 285.03, 1416 329.15Q1487.4 280.55, 1536 351.95z" fill="rgba(66, 66, 66, 1)"></path><path d="M1536 560L0 560 L0 466.57Q53.5 448.07, 72 501.57Q103.07 412.63, 192 443.7Q260.17 391.87, 312 460.04Q381.8 409.84, 432 479.64Q503.69 431.32, 552 503.01Q561.95 392.96, 672 402.91Q700.33 359.24, 744 387.57Q831.59 355.16, 864 442.76Q953.07 411.83, 984 500.9Q1037.95 434.85, 1104 488.8Q1095.47 408.27, 1176 399.75Q1263.09 366.84, 1296 453.92Q1348.73 386.65, 1416 439.38Q1506.92 410.31, 1536 501.23z" fill="rgba(104, 104, 104, 1)"></path><path d="M1560 560L0 560 L0 510.87Q87.28 478.15, 120 565.43Q161.44 534.87, 192 576.31Q209.26 473.57, 312 490.83Q342.6 449.43, 384 480.03Q451.36 475.38, 456 542.74Q502.01 516.75, 528 562.77Q529.8 492.57, 600 494.36Q629.41 451.77, 672 481.19Q734.06 471.25, 744 533.32Q810.08 527.4, 816 593.48Q841.54 547.02, 888 572.56Q915.99 480.55, 1008 508.54Q1029.14 457.69, 1080 478.83Q1121.35 448.17, 1152 489.52Q1232.95 498.47, 1224 579.42Q1267.05 550.47, 1296 593.53Q1297.37 522.9, 1368 524.27Q1396.7 480.97, 1440 509.67Q1529.78 479.45, 1560 569.22z" fill="rgba(146, 146, 146, 1)"></path></g><defs><mask id="SvgjsMask1013"><rect width="1440" height="560" fill="#ffffff"></rect></mask></defs></svg>